<?xml version="1.0" encoding="utf-8"?>
<!-- Generator: Adobe Illustrator 22.1.0, SVG Export Plug-In . SVG Version: 6.00 Build 0)  -->
<svg version="1.1" id="Layer_1" xmlns="http://www.w3.org/2000/svg" xmlns:xlink="http://www.w3.org/1999/xlink" x="0px" y="0px"
	 viewBox="0 0 390.3 379.9" style="enable-background:new 0 0 390.3 379.9;" xml:space="preserve">
<style type="text/css">
	.st0{fill:#30C5D5;}
	.st1{fill:#F5C73A;}
	.st2{fill:#F5C73A;fill-opacity:0;}
	.st3{fill:#CBAF56;}
	.st4{fill-opacity:0;}
	.st5{fill:#FFFFFF;}
	.st6{fill:#D4AA28;}
	.st7{fill:#D4AA28;fill-opacity:0;}
	.st8{fill:#FFDA68;}
	.st9{fill:#D1AF45;}
</style>
<g id="XMLID_1_">
	<g id="XMLID_6_">
		<path id="a1hW8f8Nd" class="st0" d="M0,0h390.3v379.9H0V0z"/>
	</g>
</g>
<g id="XMLID_58_">
	<g id="XMLID_62_">
		<path id="ahyhYyuP" class="st1" d="M199.9,81.5l-34.6-33.8l-27.2,13l-1.5,47.5L199.9,81.5z"/>
	</g>
	<g id="XMLID_59_">
		<g id="XMLID_60_">
			<path id="ahyhYyuP_1_" class="st2" d="M199.9,81.5l-34.6-33.8l-27.2,13l-1.5,47.5L199.9,81.5z"/>
		</g>
	</g>
</g>
<g id="XMLID_53_">
	<g id="XMLID_57_">
		<path id="aRUM1oLxj" class="st1" d="M129.7,117.1l-48-5.9L68,138l27.6,38.7L129.7,117.1z"/>
	</g>
	<path id="aRUM1oLxj_1_" class="st2" d="M129.7,117.1l-48-5.9L68,138l27.6,38.7L129.7,117.1z"/>
</g>
<g id="XMLID_48_">
	<g id="XMLID_52_">
		<path id="c1j9MSmyAc" class="st1" d="M99.9,183.6l-44.2,19.6l2,30.1l43.6,19L99.9,183.6z"/>
	</g>
	<g id="XMLID_49_">
		<g id="XMLID_50_">
			<path id="c1j9MSmyAc_1_" class="st2" d="M99.9,183.6l-44.2,19.6l2,30.1l43.6,19L99.9,183.6z"/>
		</g>
	</g>
</g>
<g id="XMLID_43_">
	<g id="XMLID_47_">
		<path id="b3eKehgqxz" class="st3" d="M285.1,108.2l-1.9-48.3l-28.7-9.2l-33.8,33.4L285.1,108.2z"/>
	</g>
	<g id="XMLID_44_">
		<g id="XMLID_45_">
			<path id="b3eKehgqxz_1_" class="st4" d="M285.1,108.2l-1.9-48.3l-28.7-9.2l-33.8,33.4L285.1,108.2z"/>
		</g>
	</g>
</g>
<circle id="XMLID_7_" class="st5" cx="210.5" cy="206.1" r="114.5"/>
<g id="XMLID_38_">
	<g id="XMLID_42_">
		<path id="a1UDfhJCxg" class="st1" d="M99.5,256.2l-20.1,44l21.4,21.2l45.2-14.6L99.5,256.2z"/>
	</g>
	<g id="XMLID_39_">
		<g id="XMLID_40_">
			<path id="a1UDfhJCxg_1_" class="st2" d="M99.5,256.2l-20.1,44l21.4,21.2l45.2-14.6L99.5,256.2z"/>
		</g>
	</g>
</g>
<g id="XMLID_26_">
	<g id="XMLID_30_">
		<path id="c7mc692wpk" class="st6" d="M101.1,243.4l0.2,8.9l-43.6-19l-2-30.3l4.9-2.2l1.7,25.6L101.1,243.4z"/>
	</g>
</g>
<g id="XMLID_21_">
	<g id="XMLID_25_">
		<path id="a10iBU7Jl8" class="st1" d="M285.1,108.5l-1.9-48.3l-28.7-9.3l-33.8,33.4L285.1,108.5z"/>
	</g>
	<g id="XMLID_22_">
		<g id="XMLID_23_">
			<path id="a10iBU7Jl8_1_" class="st2" d="M285.1,108.5l-1.9-48.3l-28.7-9.3l-33.8,33.4L285.1,108.5z"/>
		</g>
	</g>
</g>
<g id="XMLID_17_">
	<g id="XMLID_18_">
		<path id="a3x65QyHpt" class="st1" d="M218.3,109.7l3.9,0.4l3.9,0.5l3.8,0.7l3.7,0.8l3.7,1l3.6,1.1l3.6,1.3l3.5,1.4l3.4,1.5
			l3.4,1.7l3.3,1.8l3.2,1.9l3.1,2l3,2.1l3,2.3l2.9,2.4l2.8,2.5l2.7,2.6l2.6,2.7l2.5,2.8l2.4,2.9l2.3,2.9l2.1,3l2,3.1l1.9,3.2
			l1.8,3.3l1.7,3.4l1.5,3.4l1.4,3.5l1.3,3.6l1.1,3.6l1,3.7l0.8,3.7l0.7,3.8l0.5,3.9l0.4,3.9l0.2,3.9l0.1,4l-0.1,4l-0.2,3.9l-0.4,3.9
			l-0.5,3.8l-0.7,3.8l-0.8,3.7l-1,3.7l-1.1,3.6L301,240l-1.4,3.5l-1.5,3.4l-1.7,3.4l-1.8,3.3l-1.9,3.2l-2,3.1l-2.1,3l-2.3,3
			l-2.4,2.9l-2.5,2.8l-2.6,2.7l-2.7,2.6l-2.8,2.5l-2.9,2.4l-3,2.3l-3,2.1l-3.1,2l-3.2,1.9l-3.3,1.8l-3.4,1.7l-3.4,1.5l-3.5,1.4
			l-3.6,1.3l-3.6,1.1l-3.7,1l-3.7,0.9l-3.8,0.7l-3.9,0.5l-3.9,0.4l-3.9,0.2l-4,0.1l-4-0.1l-3.9-0.2l-3.9-0.4l-3.9-0.5l-3.8-0.7
			l-3.7-1.2l-3.7-1l-3.6-1.1l-3.6-1.3l-3.5-1.4l-3.4-1.5l-3.4-1.7l-3.3-1.8l-3.2-1.9l-3.1-2l-3-2.1l-2.9-2.3l-2.9-2.4l-2.8-2.5
			l-2.7-2.6l-2.6-2.7l-2.5-2.8l-2.4-2.9l-2.3-3l-2.1-3l-2-3.1l-1.9-3.2l-1.8-3.3l-1.7-3.4l-1.5-3.4l-1.4-3.5l-1.3-3.6l-1.1-3.6
			l-1-3.7l-0.8-3.7l-0.5-3.5l-0.6-3.8l-0.4-3.9L114,210l-0.1-4l0.1-4l0.2-3.9l0.4-3.9l0.6-3.9l0.7-3.8l0.8-3.7l1-3.7l1.1-3.6
			l1.3-3.6l1.4-3.5l1.5-3.4l1.7-3.4l1.8-3.3l1.9-3.2l2-3.1l2.1-3l2.3-2.9l2.4-2.9l2.5-2.8l2.6-2.7l2.7-2.6l2.8-2.5l2.9-2.4l2.9-2.3
			l3-2.1l3.1-2l3.2-1.9l3.3-1.8l3.4-1.7l3.4-1.5l3.5-1.4l3.6-1.3l3.6-1.1l3.7-1l3.8-0.8l3.8-0.7l3.9-0.5l3.9-0.4l3.9-0.2l4-0.1
			l4,0.1L218.3,109.7z M227.8,212.7l20.3-24.6v77.7h23.8V144.1h-23.8v1.4v-1.4l-38,47.4L172.7,146v-0.1h-0.5l-0.2-0.2l-0.2,0.2
			h-22.9v121.9h23.8v-78.7L210,234l1.1-1.3l0.1,0.1l2.9-3.5"/>
	</g>
</g>
<path id="bQ41xDkvM" class="st6" d="M73.1,131.2l27.3,38.2l-4.6,7.7L68,137.9l13.7-26.8l1.5,0.2L73.1,131.2z"/>
<g id="XMLID_10_">
	<g id="XMLID_14_">
		<path id="h5JFesHob9" class="st6" d="M196.4,80.3l3.5,3.4l-63.3,26.7l1.5-49.7l4.4-2.1l-1.4,45L196.4,80.3z"/>
	</g>
	<g id="XMLID_11_">
		<g id="XMLID_12_">
			<path id="h5JFesHob9_2_" class="st7" d="M141.3,103.5l55.2-23.3l3.5,3.4l-63.3,26.7l1.5-47.5"/>
		</g>
	</g>
</g>
<g id="XMLID_8_">
	<g id="XMLID_9_">
		<path id="bFntqgudT" class="st8" d="M218.3,109.7l3.9,0.4l3.9,0.6l3.8,0.7l3.7,0.9l3.7,1l3.6,1.1l0.2,0.1l-52,51.9L172.7,146l0,0
			h-0.5H172h-0.2h-22.9v60.6l-30,30l-0.1-0.2l-1.1-3.6l-1-3.7l-0.8-3.7l-0.7-3.8l-0.6-3.8l-0.4-3.9L114,210l-0.1-4l0.1-4l0.2-3.9
			l0.4-3.9l0.6-3.8l0.7-3.8l0.8-3.7l1-3.7l1.1-3.6l1.3-3.6l1.4-3.5l1.5-3.4l1.7-3.4l1.8-3.3l1.9-3.2l2-3.1l2.1-3l2.3-2.9l2.4-2.9
			l2.5-2.8l2.6-2.7l2.7-2.6l2.8-2.5l2.9-2.4l2.9-2.3l3-2.1l3.1-2l3.2-1.9l3.3-1.8l3.4-1.7l3.4-1.5l3.5-1.4l3.6-1.3l3.6-1.1l3.7-1
			l3.8-0.9l3.8-0.7l3.9-0.6l3.9-0.4l3.9-0.2l4-0.1l4,0.1L218.3,109.7z"/>
	</g>
</g>
<g id="XMLID_2_">
	<g id="XMLID_3_">
		<path id="bhhgi2FoS" class="st9" d="M326.7,161.2l1.6,4.7l1.5,4.7l1.3,4.8l1.1,4.9l0.9,5l0.7,5l0.5,5.1l0.3,5.1l0.1,5.2l-0.1,5.2
			l-0.3,5.1l-0.5,5.1l-0.7,5l-0.9,5l-1.1,4.9l-1.3,4.8l-1.5,4.7l-1.6,4.7l-1.8,4.6l-2,4.5l-2.1,4.4l-2.3,4.3l-2.5,4.2l-2.6,4.1
			l-2.8,4l-2.9,3.9l-3,3.8l-3.2,3.6l-3.3,3.5l-3.4,3.4l-3.6,3.2l-3.7,3.1l-3.8,3l-3.9,2.8l-4,2.6l-4.1,2.5l-4.2,2.3l-4.3,2.2l-4.4,2
			l-4.5,1.8l-4.6,1.7l-4.7,1.5l-4.7,1.3l-4.8,1.1l-4.9,0.9l-5,0.7l-5,0.5l-5.1,0.3l-5.1,0.1l-5.1-0.1l-5.1-0.3l-5-0.5l-4.9-0.7
			l-4.9-0.9l-4.8-1.1l-4.7-1.3l-4.7-1.5l-4.6-1.7l-4.5-1.8l-4.4-2l-4.3-2.2l0,0l15.6-15.2l0.5,0.2l3.8,1.5l3.9,1.4l4,1.2l4,1.1
			l4.1,0.9l4.1,0.8l4.2,0.6l4.3,0.4l4.3,0.3l4.3,0.1l4.3-0.1l4.3-0.3l4.3-0.4l4.2-0.6l4.1-0.8l4.1-0.9l4-1.1l4-1.2l3.9-1.4l3.8-1.5
			l3.7-1.7l3.7-1.8l3.6-1.9l3.5-2.1l3.4-2.2l3.3-2.3l3.2-2.5l3.1-2.6l3-2.7l2.9-2.8l2.8-2.9l2.7-3l2.6-3.1l2.5-3.2l2.3-3.3l2.2-3.4
			l2.1-3.5l1.9-3.6l1.8-3.7l1.7-3.7l1.5-3.8l1.4-3.9l1.2-4l1.1-4l0.9-4.1l0.8-4.1l0.6-4.2l0.4-4.3l0.3-4.3l0.1-4.3l-0.1-4.3
			l-0.3-4.3l-0.4-4.3l-0.6-4.2l-0.8-4.2l-0.9-4.1l-1.1-4l-1.2-4l-1.4-3.9l-0.7-1.8l14.7-14.3l1.8,4.2L326.7,161.2z"/>
	</g>
</g>
<g id="XMLID_31_">
	<g id="XMLID_35_">
		<path id="brCs1SsAd" class="st6" d="M82.9,292.4l22.4,22.2l36.9-11.9l3.8,4.1l-45.2,14.6l-21.4-21.2l20.1-44l0,0L82.9,292.4z"/>
	</g>
	<g id="XMLID_32_">
		<g id="XMLID_33_">
			<path id="brCs1SsAd_1_" class="st7" d="M82.9,292.4l22.4,22.2l36.9-11.9l3.8,4.1l-45.2,14.6l-21.4-21.2l20.1-44l0,0L82.9,292.4z"
				/>
		</g>
	</g>
</g>
<g id="XMLID_4_">
	<g id="XMLID_5_">
		<path id="cOqQvGqWc" class="st1" d="M220.6,80.1l5,0.5l5,0.7l4.9,0.9l4.8,1.1l4.7,1.3l4.7,1.5l4.6,1.6l4.5,1.8l4.4,2l4.3,2.2
			l4.2,2.3l4.1,2.5l4,2.6l3.9,2.8l3.8,2.9l3.7,3.1l3.6,3.2l3.4,3.4l3.3,3.5l3.2,3.6l3,3.7l2.9,3.9l2.8,4l2.6,4.1l2.5,4.2l2.3,4.3
			l2.1,4.4l2,4.5l1.8,4.6l1.6,4.7l1.5,4.7l1.3,4.8l1.1,4.9l0.9,5l0.7,5l0.5,5.1l0.3,5.1l0.1,5.2l-0.1,5.2l-0.3,5.1l-0.5,5.1l-0.7,5
			l-0.9,5l-1.1,4.9l-1.3,4.8l-1.5,4.8l-1.6,4.7l-1.8,4.6l-2,4.5l-2.1,4.4l-2.3,4.3l-2.5,4.2l-2.6,4.1l-2.8,4l-2.9,3.9l-3,3.7
			l-3.2,3.6l-3.3,3.5l-3.4,3.4l-3.6,3.2l-3.7,3.1l-3.8,2.9l-3.9,2.8l-4,2.6l-4.1,2.5l-4.2,2.3l-4.3,2.2l-4.4,2l-4.5,1.8l-4.6,1.7
			l-4.7,1.5l-4.7,1.3l-4.8,1.1l-4.9,0.9l-5,0.7l-5,0.5l-5.1,0.3l-5.1,0.1l-5.1-0.1l-5.1-0.3l-5-0.5l-4.9-0.7l-4.9-0.9l-4.8-1.1
			l-4.7-1.3l-4.7-1.5l-4.6-1.7l-4.5-1.8l-4.4-2l-4.3-2.2l-4.2-2.3l-4.1-2.5l-4-2.6l-3.9-2.8l-3.8-2.9l-3.7-3.1l-3.6-3.2l-3.4-3.4
			l-3.3-3.5l-3.2-3.6l-3-3.7l-2.9-3.9l-2.8-4l-2.6-4.1l-2.4-4.2l-2.3-4.3l-2.1-4.4l-2-4.5l-1.8-4.6l-1.6-4.7l-1.5-4.8l-1.3-4.8
			l-1.1-4.9l-0.9-5l-0.7-5l-0.5-5.1l-0.3-5.1l-0.1-5.2l0.1-5.2l0.3-5.1l0.5-5.1l0.7-5l0.9-5l1.1-4.9l1.3-4.8l1.5-4.7l1.6-4.7
			l1.8-4.6l2-4.5l2.1-4.4l2.3-4.3l2.4-4.2l2.6-4.1l2.8-4l2.9-3.9l3-3.7l3.2-3.6l3.3-3.5l3.4-3.4l3.6-3.2l3.7-3.1l3.8-2.9l3.9-2.8
			l4-2.6l4.1-2.5l4.2-2.3l4.3-2.2l4.4-2l4.5-1.8l4.6-1.6l4.7-1.5l4.7-1.3l4.8-1.1l4.9-0.9l4.9-0.7l5-0.5l5.1-0.3l5.1-0.1l5.1,0.1
			L220.6,80.1z M201.8,100.8l-4.3,0.4l-4.2,0.6l-4.1,0.8l-4.1,0.9l-4,1.1l-4,1.2l-3.9,1.4l-3.8,1.5l-3.7,1.7l-3.7,1.8l-3.6,1.9
			l-3.5,2.1l-3.4,2.2l-3.3,2.3l-3.2,2.5l-3.1,2.6l-3,2.7l-2.9,2.8l-2.8,2.9l-2.7,3l-2.6,3.1l-2.5,3.2l-2.3,3.3l-2.2,3.4l-2.1,3.5
			l-1.9,3.6l-1.8,3.7l-1.7,3.8l-1.5,3.8l-1.4,3.9l-1.2,4l-1.1,4l-0.9,4.1l-0.8,4.1l-0.6,4.2l-0.4,4.3l-0.3,4.3l-0.1,4.3l0.1,4.4
			l0.3,4.3l0.4,4.3l0.6,4.2l0.8,4.1l0.9,4.1l1.1,4l1.2,4l1.4,3.9l1.5,3.8l1.7,3.8l1.8,3.7l1.9,3.6l2.1,3.5l2.2,3.4l2.3,3.3l2.5,3.2
			l2.6,3.1l2.7,3l2.8,2.9l2.9,2.8l3,2.7l3.1,2.6l3.2,2.5l3.3,2.3l3.4,2.2l3.5,2.1l3.6,2l3.7,1.8l3.7,1.7l3.8,1.5l3.9,1.4l4,1.2
			l4,1.1l4.1,0.9l4.1,0.8l4.2,0.6l4.3,0.4l4.3,0.3l4.3,0.1l4.3-0.1l4.3-0.3l4.3-0.4l4.2-0.6l4.1-0.8l4.1-0.9l4-1.1l4-1.2l3.9-1.4
			l3.8-1.5l3.7-1.7l3.7-1.8l3.6-2l3.5-2.1l3.4-2.2l3.3-2.3l3.2-2.5l3.1-2.6l3-2.7l2.9-2.8l2.8-2.9l2.7-3l2.6-3.1l2.5-3.2l2.3-3.3
			l2.2-3.4l2.1-3.5l1.9-3.6l1.8-3.7l1.7-3.8l1.5-3.8l1.4-3.9l1.2-4l1.1-4l0.9-4.1l0.8-4.1l0.6-4.2l0.4-4.3l0.3-4.3l0.1-4.4l-0.1-4.3
			l-0.3-4.3l-0.4-4.3l-0.6-4.2l-0.8-4.1l-0.9-4.1l-1.1-4l-1.2-4l-1.4-3.9l-1.5-3.8l-1.7-3.8l-1.8-3.7l-1.9-3.6l-2.1-3.5l-2.2-3.4
			l-2.3-3.3l-2.5-3.2l-2.6-3.1l-2.7-3l-2.8-2.9l-2.9-2.8l-3-2.7l-3.1-2.6l-3.2-2.5l-3.3-2.3l-3.4-2.2l-3.5-2.1l-3.6-1.9l-3.7-1.8
			l-3.7-1.7l-3.8-1.5l-3.9-1.4l-4-1.2l-4-1.1l-4.1-0.9l-4.1-0.8l-4.2-0.6l-4.3-0.4l-4.3-0.3l-4.3-0.1l-4.3,0.1L201.8,100.8z"/>
	</g>
</g>
<g id="XMLID_27_">
	<g id="XMLID_28_">
		<path id="bhhgi2FoS_1_" class="st6" d="M326.7,161.2l1.6,4.7l1.5,4.7l1.3,4.8l1.1,4.9l0.9,5l0.7,5l0.5,5.1l0.3,5.1l0.1,5.2
			l-0.1,5.2l-0.3,5.1l-0.5,5.1l-0.7,5l-0.9,5l-1.1,4.9l-1.3,4.8l-1.5,4.7l-1.6,4.7l-1.8,4.6l-2,4.5l-2.1,4.4l-2.3,4.3l-2.5,4.2
			l-2.6,4.1l-2.8,4l-2.9,3.9l-3,3.8l-3.2,3.6l-3.3,3.5l-3.4,3.4l-3.6,3.2l-3.7,3.1l-3.8,3l-3.9,2.8l-4,2.6l-4.1,2.5l-4.2,2.3
			l-4.3,2.2l-4.4,2l-4.5,1.8l-4.6,1.7l-4.7,1.5l-4.7,1.3l-4.8,1.1l-4.9,0.9l-5,0.7l-5,0.5l-5.1,0.3l-5.1,0.1l-5.1-0.1l-5.1-0.3
			l-5-0.5l-4.9-0.7l-4.9-0.9l-4.8-1.1l-4.7-1.3l-4.7-1.5l-4.6-1.7l-4.5-1.8l-4.4-2l-4.3-2.2l0,0l15.6-15.2l0.5,0.2l3.8,1.5l3.9,1.4
			l4,1.2l4,1.1l4.1,0.9l4.1,0.8l4.2,0.6l4.3,0.4l4.3,0.3l4.3,0.1l4.3-0.1l4.3-0.3l4.3-0.4l4.2-0.6l4.1-0.8l4.1-0.9l4-1.1l4-1.2
			l3.9-1.4l3.8-1.5l3.7-1.7l3.7-1.8l3.6-1.9l3.5-2.1l3.4-2.2l3.3-2.3l3.2-2.5l3.1-2.6l3-2.7l2.9-2.8l2.8-2.9l2.7-3l2.6-3.1l2.5-3.2
			l2.3-3.3l2.2-3.4l2.1-3.5l1.9-3.6l1.8-3.7l1.7-3.7l1.5-3.8l1.4-3.9l1.2-4l1.1-4l0.9-4.1l0.8-4.1l0.6-4.2l0.4-4.3l0.3-4.3l0.1-4.3
			l-0.1-4.3l-0.3-4.3l-0.4-4.3l-0.6-4.2l-0.8-4.2l-0.9-4.1l-1.1-4l-1.2-4l-1.4-3.9l-0.7-1.8l14.7-14.3l1.8,4.2L326.7,161.2z"/>
	</g>
</g>
</svg>
